Battleship.2012.720p.CAM.READNFO.XviD.v5-INSPiRAL





TITLE:

Battleship 2012 720p CAM READNFO XViD v5 - INSPiRAL

IMDB:
 
http://www.imdb.com/title/tt1440129/


SOURCES:

VIDEO - 720p smy THANKS
AUDIO - 26k repack THANKS
SUBS - None Add

STATS:

Video
ID : 0
Format : MPEG-4 Visual
Format profile : Advanced Simple@L5
Format settings, BVOP : 2
Format settings, QPel : No
Format settings, GMC : No warppoints
Format settings, Matrix : Default (MPEG)
Muxing mode : Packed bitstream
Codec ID : XVID
Codec ID/Hint : XviD
Duration : 2h 1mn
Bit rate : 2 725 Kbps
Width : 1 280 pixels
Height : 576 pixels
Display aspect ratio : 2.222
Frame rate : 29.970 fps
Color space : YUV
Chroma subsampling : 4:2:0
Bit depth : 8 bits
Scan type : Progressive
Compression mode : Lossy
Bits/(Pixel*Frame) : 0.123
Stream size : 2.31 GiB (95%)
Writing library : XviD 64

Audio
ID : 1
Format : MPEG Audio
Format version : Version 1
Format profile : Layer 3
Codec ID : 55
Codec ID/Hint : MP3
Duration : 2h 1mn
Bit rate mode : Constant
Bit rate : 128 Kbps
Channel(s) : 2 channels
Sampling rate : 44.1 KHz
Compression mode : Lossy
Stream size : 111 MiB (4%)
Alignment : Split accross interleaves
Interleave, duration : 33 ms (1.00 video frame)
Interleave, preload duration : 500 ms